
<svg version="1.2" xmlns="http://www.w3.org/2000/svg" viewBox="0 0 512 512" width="512" height="512"><style>.a{fill:#f00}.b{fill:#2600ff}</style><path fill-rule="evenodd" d="m413.8 176.6c-1.5 5.4-3.6 10.6-6.4 15.5-2.8 4.8-6.3 9.3-10.2 13.2-4 4-8.5 7.4-13.4 10.2-1.8 37.1-17.3 65.3-46.3 83.9-24 15.4-52.4 21.3-79.8 26.9-49.3 10.2-62.9 16.6-65.3 34.6 25 14.6 37 44.2 29.3 72-7.6 27.9-33 47.2-61.9 47.1-28.9-0.1-54.2-19.6-61.6-47.5-7.5-28 4.8-57.4 29.8-71.9v-209.2c-25.1-14.5-37.3-44-29.8-72 7.5-28 32.9-47.4 61.8-47.4 29 0 54.3 19.4 61.8 47.4 7.5 28-4.7 57.5-29.8 72v126.2c16.8-6.5 35-10.3 52.7-13.9 55-11.5 72.7-19.4 75-48.5-19.7-11.5-31.8-32.6-31.7-55.5 0.1-22.8 12.3-43.9 32.1-55.2 19.9-11.4 44.2-11.4 64 0.1 19.7 11.4 31.9 32.6 31.9 55.4 0 5.6-0.7 11.2-2.2 16.6zm-266-110.2c-3.9 1.6-7.5 4-10.4 7-3 2.9-5.4 6.5-7 10.4-1.6 3.8-2.4 8-2.4 12.2 0 12.9 7.8 24.6 19.8 29.6 11.9 4.9 25.7 2.2 34.8-7 9.2-9.1 11.9-22.9 7-34.8-5-12-16.7-19.8-29.6-19.8-4.2 0-8.4 0.8-12.2 2.4zm24.4 379.2c3.9-1.6 7.5-4 10.4-7 3-2.9 5.4-6.5 7-10.4 1.6-3.8 2.4-8 2.4-12.2 0-12.9-7.8-24.6-19.8-29.6-11.9-4.9-25.7-2.2-34.8 7-9.2 9.1-11.9 22.9-7 34.8 5 12 16.7 19.8 29.6 19.8 4.2 0 8.4-0.8 12.2-2.4zm192-256c3.9-1.6 7.5-4 10.4-7 3-2.9 5.4-6.5 7-10.4 1.6-3.8 2.4-8 2.4-12.2 0-12.9-7.8-24.6-19.8-29.6-11.9-4.9-25.7-2.2-34.8 7-9.2 9.1-11.9 22.9-7 34.8 5 12 16.7 19.8 29.6 19.8 4.2 0 8.4-0.8 12.2-2.4z"/><path  d=""/><path class="a" d="m160 146c-27.7 0-50-22.3-50-50 0-27.7 22.3-50 50-50 27.7 0 50 22.3 50 50 0 27.7-22.3 50-50 50z"/><path class="b" d="m353 210c-27.6 0-50-22.3-50-50 0-27.7 22.4-50 50-50 27.6 0 50 22.3 50 50 0 27.7-22.4 50-50 50z"/><path class="b" d="m353 210c-27.6 0-50-22.4-50-50 0-27.6 22.4-50 50-50 27.6 0 50 22.4 50 50 0 27.6-22.4 50-50 50z"/></svg>
